# MagicaVoxel @ Ephtracy

# group
o 

# material
mtllib VampiPato.mtl
usemtl palette

# normals
vn -1 0 0
vn 1 0 0
vn 0 0 1
vn 0 0 -1
vn 0 -1 0
vn 0 1 0

# texcoords
vt 0.00195313 0.5
vt 0.0332031 0.5
vt 0.0410156 0.5
vt 0.0605469 0.5
vt 0.142578 0.5
vt 0.521484 0.5
vt 0.611328 0.5
vt 0.634766 0.5
vt 0.646484 0.5
vt 0.841797 0.5
vt 0.978516 0.5
vt 0.986328 0.5
vt 0.994141 0.5

# verts
v 0 1 -0.4
v 0 1 -0.5
v 0 1.1 -0.4
v 0 1.1 -0.5
v 0 1.3 -0.4
v 0 1.3 -0.8
v 0 1.4 -0.3
v 0 1.4 -0.4
v 0 1.6 -0.7
v 0 1.6 -0.8
v 0 1.7 -0.3
v 0 1.7 -0.4
v 0 1.7 -0.6
v 0 1.7 -0.7
v 0 1.8 -0.4
v 0 1.8 -0.6
v 0 1.9 -0.2
v 0 1.9 -0.6
v 0 2 -0.3
v 0 2 -0.4
v 0 2 -0.6
v 0 2 -0.7
v 0 2.1 -0.3
v 0 2.1 -0.4
v 0 2.1 -0.5
v 0 2.2 -0.2
v 0 2.2 -0.3
v 0 2.2 -0.5
v 0 2.2 -0.7
v 0.1 1 -0.3
v 0.1 1 -0.4
v 0.1 1 -0.5
v 0.1 1 -0.6
v 0.1 1.1 -0.3
v 0.1 1.1 -0.4
v 0.1 1.1 -0.5
v 0.1 1.2 -0.3
v 0.1 1.2 -0.5
v 0.1 1.2 -0.6
v 0.1 1.2 -0.8
v 0.1 1.3 -0.4
v 0.1 1.3 -0.8
v 0.1 1.3 -1
v 0.1 1.4 -0.2
v 0.1 1.4 -0.3
v 0.1 1.4 -0.4
v 0.1 1.4 -0.9
v 0.1 1.4 -1
v 0.1 1.5 -0.8
v 0.1 1.5 -0.9
v 0.1 1.7 -0.2
v 0.1 1.7 -0.3
v 0.1 1.7 -0.4
v 0.1 1.7 -0.6
v 0.1 1.7 -0.7
v 0.1 1.8 -0.4
v 0.1 1.8 -0.6
v 0.1 1.8 -0.7
v 0.1 1.9 0
v 0.1 1.9 -0.1
v 0.1 1.9 -0.3
v 0.1 1.9 -0.6
v 0.1 1.9 -0.7
v 0.1 2 0
v 0.1 2 -0.1
v 0.1 2 -0.2
v 0.1 2 -0.3
v 0.1 2 -0.4
v 0.1 2 -0.6
v 0.1 2 -0.7
v 0.1 2.1 0
v 0.1 2.1 -0.2
v 0.1 2.1 -0.3
v 0.1 2.1 -0.4
v 0.1 2.2 -0.3
v 0.1 2.2 -0.5
v 0.1 2.2 -0.6
v 0.1 2.3 -0.3
v 0.1 2.3 -0.6
v 0.2 1.2 -0.8
v 0.2 1.2 -0.9
v 0.2 1.3 -0.2
v 0.2 1.3 -0.3
v 0.2 1.3 -0.8
v 0.2 1.3 -0.9
v 0.2 1.4 -0.1
v 0.2 1.4 -0.2
v 0.2 1.4 -0.3
v 0.2 1.7 -0.1
v 0.2 1.7 -0.2
v 0.2 1.7 -0.3
v 0.2 1.8 -0.2
v 0.2 1.8 -0.3
v 0.2 1.9 -0.1
v 0.2 1.9 -0.2
v 0.2 2 -0.1
v 0.2 2 -0.2
v 0.4 1 -0.3
v 0.4 1 -0.6
v 0.4 1.1 -0.3
v 0.4 1.1 -0.5
v 0.4 1.2 -0.5
v 0.4 1.2 -0.6
v 0.4 1.9 0
v 0.4 1.9 -0.1
v 0.4 2 0
v 0.4 2 -0.1
v 0.2 1 -0.3
v 0.2 1 -0.6
v 0.2 1.1 -0.3
v 0.2 1.1 -0.5
v 0.2 1.2 -0.5
v 0.2 1.2 -0.6
v 0.2 1.9 0
v 0.2 1.9 -0.1
v 0.2 2 0
v 0.2 2 -0.1
v 0.4 1.2 -0.8
v 0.4 1.2 -0.9
v 0.4 1.3 -0.2
v 0.4 1.3 -0.3
v 0.4 1.3 -0.8
v 0.4 1.3 -0.9
v 0.4 1.4 -0.1
v 0.4 1.4 -0.2
v 0.4 1.4 -0.3
v 0.4 1.7 -0.1
v 0.4 1.7 -0.2
v 0.4 1.7 -0.3
v 0.4 1.8 -0.2
v 0.4 1.8 -0.3
v 0.4 1.9 -0.1
v 0.4 1.9 -0.2
v 0.4 2 -0.1
v 0.4 2 -0.2
v 0.5 1 -0.3
v 0.5 1 -0.4
v 0.5 1 -0.5
v 0.5 1 -0.6
v 0.5 1.1 -0.3
v 0.5 1.1 -0.4
v 0.5 1.1 -0.5
v 0.5 1.2 -0.3
v 0.5 1.2 -0.5
v 0.5 1.2 -0.6
v 0.5 1.2 -0.8
v 0.5 1.3 -0.4
v 0.5 1.3 -0.8
v 0.5 1.3 -1
v 0.5 1.4 -0.2
v 0.5 1.4 -0.3
v 0.5 1.4 -0.4
v 0.5 1.4 -0.9
v 0.5 1.4 -1
v 0.5 1.5 -0.8
v 0.5 1.5 -0.9
v 0.5 1.7 -0.2
v 0.5 1.7 -0.3
v 0.5 1.7 -0.4
v 0.5 1.7 -0.6
v 0.5 1.7 -0.7
v 0.5 1.8 -0.4
v 0.5 1.8 -0.6
v 0.5 1.8 -0.7
v 0.5 1.9 0
v 0.5 1.9 -0.1
v 0.5 1.9 -0.3
v 0.5 1.9 -0.6
v 0.5 1.9 -0.7
v 0.5 2 0
v 0.5 2 -0.1
v 0.5 2 -0.2
v 0.5 2 -0.3
v 0.5 2 -0.4
v 0.5 2 -0.6
v 0.5 2 -0.7
v 0.5 2.1 0
v 0.5 2.1 -0.2
v 0.5 2.1 -0.3
v 0.5 2.1 -0.4
v 0.5 2.2 -0.3
v 0.5 2.2 -0.5
v 0.5 2.2 -0.6
v 0.5 2.3 -0.3
v 0.5 2.3 -0.6
v 0.6 1 -0.4
v 0.6 1 -0.5
v 0.6 1.1 -0.4
v 0.6 1.1 -0.5
v 0.6 1.3 -0.4
v 0.6 1.3 -0.8
v 0.6 1.4 -0.3
v 0.6 1.4 -0.4
v 0.6 1.6 -0.7
v 0.6 1.6 -0.8
v 0.6 1.7 -0.3
v 0.6 1.7 -0.4
v 0.6 1.7 -0.6
v 0.6 1.7 -0.7
v 0.6 1.8 -0.4
v 0.6 1.8 -0.6
v 0.6 1.9 -0.2
v 0.6 1.9 -0.6
v 0.6 2 -0.3
v 0.6 2 -0.4
v 0.6 2 -0.6
v 0.6 2 -0.7
v 0.6 2.1 -0.3
v 0.6 2.1 -0.4
v 0.6 2.1 -0.5
v 0.6 2.2 -0.2
v 0.6 2.2 -0.3
v 0.6 2.2 -0.5
v 0.6 2.2 -0.7
v 0.1 1.9 0
v 0.1 2 0
v 0.1 2.1 0
v 0.2 1.9 0
v 0.2 2 0
v 0.4 1.9 0
v 0.4 2 0
v 0.5 1.9 0
v 0.5 2 0
v 0.5 2.1 0
v 0.2 1.4 -0.1
v 0.2 1.7 -0.1
v 0.2 1.9 -0.1
v 0.2 2 -0.1
v 0.4 1.4 -0.1
v 0.4 1.7 -0.1
v 0.4 1.9 -0.1
v 0.4 2 -0.1
v 0 1.9 -0.2
v 0 2.2 -0.2
v 0.1 1.4 -0.2
v 0.1 1.7 -0.2
v 0.1 2 -0.2
v 0.1 2.1 -0.2
v 0.2 1.3 -0.2
v 0.2 1.4 -0.2
v 0.2 1.7 -0.2
v 0.2 1.8 -0.2
v 0.2 1.9 -0.2
v 0.2 2 -0.2
v 0.4 1.3 -0.2
v 0.4 1.4 -0.2
v 0.4 1.7 -0.2
v 0.4 1.8 -0.2
v 0.4 1.9 -0.2
v 0.4 2 -0.2
v 0.5 1.4 -0.2
v 0.5 1.7 -0.2
v 0.5 2 -0.2
v 0.5 2.1 -0.2
v 0.6 1.9 -0.2
v 0.6 2.2 -0.2
v 0 1.4 -0.3
v 0 1.7 -0.3
v 0.1 1 -0.3
v 0.1 1.1 -0.3
v 0.1 1.2 -0.3
v 0.1 1.4 -0.3
v 0.1 1.7 -0.3
v 0.1 1.9 -0.3
v 0.1 2.2 -0.3
v 0.1 2.3 -0.3
v 0.2 1 -0.3
v 0.2 1.1 -0.3
v 0.2 1.3 -0.3
v 0.2 1.4 -0.3
v 0.2 1.7 -0.3
v 0.2 1.8 -0.3
v 0.4 1 -0.3
v 0.4 1.1 -0.3
v 0.4 1.3 -0.3
v 0.4 1.4 -0.3
v 0.4 1.7 -0.3
v 0.4 1.8 -0.3
v 0.5 1 -0.3
v 0.5 1.1 -0.3
v 0.5 1.2 -0.3
v 0.5 1.4 -0.3
v 0.5 1.7 -0.3
v 0.5 1.9 -0.3
v 0.5 2.2 -0.3
v 0.5 2.3 -0.3
v 0.6 1.4 -0.3
v 0.6 1.7 -0.3
v 0 1 -0.4
v 0 1.1 -0.4
v 0 1.3 -0.4
v 0 1.4 -0.4
v 0 1.7 -0.4
v 0 1.8 -0.4
v 0 2 -0.4
v 0 2.1 -0.4
v 0.1 1 -0.4
v 0.1 1.1 -0.4
v 0.1 1.3 -0.4
v 0.1 1.4 -0.4
v 0.1 1.7 -0.4
v 0.1 1.8 -0.4
v 0.1 2 -0.4
v 0.1 2.1 -0.4
v 0.5 1 -0.4
v 0.5 1.1 -0.4
v 0.5 1.3 -0.4
v 0.5 1.4 -0.4
v 0.5 1.7 -0.4
v 0.5 1.8 -0.4
v 0.5 2 -0.4
v 0.5 2.1 -0.4
v 0.6 1 -0.4
v 0.6 1.1 -0.4
v 0.6 1.3 -0.4
v 0.6 1.4 -0.4
v 0.6 1.7 -0.4
v 0.6 1.8 -0.4
v 0.6 2 -0.4
v 0.6 2.1 -0.4
v 0.1 1.1 -0.5
v 0.1 1.2 -0.5
v 0.2 1.1 -0.5
v 0.2 1.2 -0.5
v 0.4 1.1 -0.5
v 0.4 1.2 -0.5
v 0.5 1.1 -0.5
v 0.5 1.2 -0.5
v 0.1 1.9 -0.1
v 0.1 2 -0.1
v 0.2 1.9 -0.1
v 0.2 2 -0.1
v 0.4 1.9 -0.1
v 0.4 2 -0.1
v 0.5 1.9 -0.1
v 0.5 2 -0.1
v 0 2 -0.3
v 0 2.1 -0.3
v 0.1 2 -0.3
v 0.1 2.1 -0.3
v 0.5 2 -0.3
v 0.5 2.1 -0.3
v 0.6 2 -0.3
v 0.6 2.1 -0.3
v 0 1 -0.5
v 0 1.1 -0.5
v 0.1 1 -0.5
v 0.1 1.1 -0.5
v 0.5 1 -0.5
v 0.5 1.1 -0.5
v 0.6 1 -0.5
v 0.6 1.1 -0.5
v 0 1.7 -0.6
v 0 1.8 -0.6
v 0 1.9 -0.6
v 0 2 -0.6
v 0.1 1 -0.6
v 0.1 1.2 -0.6
v 0.1 1.7 -0.6
v 0.1 1.8 -0.6
v 0.1 1.9 -0.6
v 0.1 2 -0.6
v 0.1 2.2 -0.6
v 0.1 2.3 -0.6
v 0.2 1 -0.6
v 0.2 1.2 -0.6
v 0.4 1 -0.6
v 0.4 1.2 -0.6
v 0.5 1 -0.6
v 0.5 1.2 -0.6
v 0.5 1.7 -0.6
v 0.5 1.8 -0.6
v 0.5 1.9 -0.6
v 0.5 2 -0.6
v 0.5 2.2 -0.6
v 0.5 2.3 -0.6
v 0.6 1.7 -0.6
v 0.6 1.8 -0.6
v 0.6 1.9 -0.6
v 0.6 2 -0.6
v 0 1.6 -0.7
v 0 1.7 -0.7
v 0 2 -0.7
v 0 2.2 -0.7
v 0.1 1.6 -0.7
v 0.1 1.7 -0.7
v 0.1 1.8 -0.7
v 0.1 1.9 -0.7
v 0.1 2 -0.7
v 0.5 1.6 -0.7
v 0.5 1.7 -0.7
v 0.5 1.8 -0.7
v 0.5 1.9 -0.7
v 0.5 2 -0.7
v 0.6 1.6 -0.7
v 0.6 1.7 -0.7
v 0.6 2 -0.7
v 0.6 2.2 -0.7
v 0 1.3 -0.8
v 0 1.6 -0.8
v 0.1 1.2 -0.8
v 0.1 1.3 -0.8
v 0.1 1.5 -0.8
v 0.1 1.6 -0.8
v 0.2 1.2 -0.8
v 0.2 1.3 -0.8
v 0.4 1.2 -0.8
v 0.4 1.3 -0.8
v 0.5 1.2 -0.8
v 0.5 1.3 -0.8
v 0.5 1.5 -0.8
v 0.5 1.6 -0.8
v 0.6 1.3 -0.8
v 0.6 1.6 -0.8
v 0.1 1.4 -0.9
v 0.1 1.5 -0.9
v 0.2 1.2 -0.9
v 0.2 1.3 -0.9
v 0.4 1.2 -0.9
v 0.4 1.3 -0.9
v 0.5 1.4 -0.9
v 0.5 1.5 -0.9
v 0.1 1.3 -1
v 0.1 1.4 -1
v 0.5 1.3 -1
v 0.5 1.4 -1
v 0.1 1 -0.3
v 0.2 1 -0.3
v 0.4 1 -0.3
v 0.5 1 -0.3
v 0 1 -0.4
v 0.1 1 -0.4
v 0.5 1 -0.4
v 0.6 1 -0.4
v 0 1 -0.5
v 0.1 1 -0.5
v 0.5 1 -0.5
v 0.6 1 -0.5
v 0.1 1 -0.6
v 0.2 1 -0.6
v 0.4 1 -0.6
v 0.5 1 -0.6
v 0.1 1.2 -0.3
v 0.5 1.2 -0.3
v 0.1 1.2 -0.5
v 0.2 1.2 -0.5
v 0.4 1.2 -0.5
v 0.5 1.2 -0.5
v 0.1 1.2 -0.6
v 0.2 1.2 -0.6
v 0.4 1.2 -0.6
v 0.5 1.2 -0.6
v 0.1 1.2 -0.8
v 0.2 1.2 -0.8
v 0.4 1.2 -0.8
v 0.5 1.2 -0.8
v 0.2 1.2 -0.9
v 0.4 1.2 -0.9
v 0.2 1.3 -0.2
v 0.4 1.3 -0.2
v 0.2 1.3 -0.3
v 0.4 1.3 -0.3
v 0 1.3 -0.4
v 0.1 1.3 -0.4
v 0.5 1.3 -0.4
v 0.6 1.3 -0.4
v 0 1.3 -0.8
v 0.1 1.3 -0.8
v 0.2 1.3 -0.8
v 0.4 1.3 -0.8
v 0.5 1.3 -0.8
v 0.6 1.3 -0.8
v 0.2 1.3 -0.9
v 0.4 1.3 -0.9
v 0.1 1.3 -1
v 0.5 1.3 -1
v 0.2 1.4 -0.1
v 0.4 1.4 -0.1
v 0.1 1.4 -0.2
v 0.2 1.4 -0.2
v 0.4 1.4 -0.2
v 0.5 1.4 -0.2
v 0 1.4 -0.3
v 0.1 1.4 -0.3
v 0.2 1.4 -0.3
v 0.4 1.4 -0.3
v 0.5 1.4 -0.3
v 0.6 1.4 -0.3
v 0 1.4 -0.4
v 0.1 1.4 -0.4
v 0.5 1.4 -0.4
v 0.6 1.4 -0.4
v 0.1 1.9 0
v 0.2 1.9 0
v 0.4 1.9 0
v 0.5 1.9 0
v 0.1 1.9 -0.1
v 0.2 1.9 -0.1
v 0.4 1.9 -0.1
v 0.5 1.9 -0.1
v 0 1.9 -0.2
v 0.2 1.9 -0.2
v 0.4 1.9 -0.2
v 0.6 1.9 -0.2
v 0.1 1.9 -0.3
v 0.5 1.9 -0.3
v 0 1.9 -0.6
v 0.1 1.9 -0.6
v 0.5 1.9 -0.6
v 0.6 1.9 -0.6
v 0.1 1.9 -0.7
v 0.5 1.9 -0.7
v 0.2 2 0
v 0.4 2 0
v 0.1 2 -0.1
v 0.2 2 -0.1
v 0.4 2 -0.1
v 0.5 2 -0.1
v 0.1 2 -0.2
v 0.2 2 -0.2
v 0.4 2 -0.2
v 0.5 2 -0.2
v 0 2 -0.6
v 0.1 2 -0.6
v 0.5 2 -0.6
v 0.6 2 -0.6
v 0 2 -0.7
v 0.1 2 -0.7
v 0.5 2 -0.7
v 0.6 2 -0.7
v 0 2.1 -0.3
v 0.1 2.1 -0.3
v 0.5 2.1 -0.3
v 0.6 2.1 -0.3
v 0 2.1 -0.4
v 0.1 2.1 -0.4
v 0.5 2.1 -0.4
v 0.6 2.1 -0.4
v 0.1 1.1 -0.3
v 0.2 1.1 -0.3
v 0.4 1.1 -0.3
v 0.5 1.1 -0.3
v 0 1.1 -0.4
v 0.1 1.1 -0.4
v 0.5 1.1 -0.4
v 0.6 1.1 -0.4
v 0 1.1 -0.5
v 0.1 1.1 -0.5
v 0.2 1.1 -0.5
v 0.4 1.1 -0.5
v 0.5 1.1 -0.5
v 0.6 1.1 -0.5
v 0.1 1.4 -0.9
v 0.5 1.4 -0.9
v 0.1 1.4 -1
v 0.5 1.4 -1
v 0.1 1.5 -0.8
v 0.5 1.5 -0.8
v 0.1 1.5 -0.9
v 0.5 1.5 -0.9
v 0 1.6 -0.7
v 0.1 1.6 -0.7
v 0.5 1.6 -0.7
v 0.6 1.6 -0.7
v 0 1.6 -0.8
v 0.1 1.6 -0.8
v 0.5 1.6 -0.8
v 0.6 1.6 -0.8
v 0.2 1.7 -0.1
v 0.4 1.7 -0.1
v 0.1 1.7 -0.2
v 0.2 1.7 -0.2
v 0.4 1.7 -0.2
v 0.5 1.7 -0.2
v 0 1.7 -0.3
v 0.1 1.7 -0.3
v 0.2 1.7 -0.3
v 0.4 1.7 -0.3
v 0.5 1.7 -0.3
v 0.6 1.7 -0.3
v 0 1.7 -0.4
v 0.1 1.7 -0.4
v 0.5 1.7 -0.4
v 0.6 1.7 -0.4
v 0 1.7 -0.6
v 0.1 1.7 -0.6
v 0.5 1.7 -0.6
v 0.6 1.7 -0.6
v 0 1.7 -0.7
v 0.1 1.7 -0.7
v 0.5 1.7 -0.7
v 0.6 1.7 -0.7
v 0.2 1.8 -0.2
v 0.4 1.8 -0.2
v 0.2 1.8 -0.3
v 0.4 1.8 -0.3
v 0 1.8 -0.4
v 0.1 1.8 -0.4
v 0.5 1.8 -0.4
v 0.6 1.8 -0.4
v 0 1.8 -0.6
v 0.1 1.8 -0.6
v 0.5 1.8 -0.6
v 0.6 1.8 -0.6
v 0.1 1.8 -0.7
v 0.5 1.8 -0.7
v 0 2 -0.3
v 0.1 2 -0.3
v 0.5 2 -0.3
v 0.6 2 -0.3
v 0 2 -0.4
v 0.1 2 -0.4
v 0.5 2 -0.4
v 0.6 2 -0.4
v 0.1 2.1 0
v 0.5 2.1 0
v 0.1 2.1 -0.2
v 0.5 2.1 -0.2
v 0 2.2 -0.2
v 0.6 2.2 -0.2
v 0 2.2 -0.3
v 0.1 2.2 -0.3
v 0.5 2.2 -0.3
v 0.6 2.2 -0.3
v 0 2.2 -0.5
v 0.1 2.2 -0.5
v 0.5 2.2 -0.5
v 0.6 2.2 -0.5
v 0.1 2.2 -0.6
v 0.5 2.2 -0.6
v 0 2.2 -0.7
v 0.6 2.2 -0.7
v 0.1 2.3 -0.3
v 0.5 2.3 -0.3
v 0.1 2.3 -0.6
v 0.5 2.3 -0.6

# faces
f 3/3/1 2/3/1 1/3/1
f 4/3/1 2/3/1 3/3/1
f 8/11/1 6/11/1 5/11/1
f 9/11/1 6/11/1 8/11/1
f 9/11/1 8/11/1 7/11/1
f 10/11/1 6/11/1 9/11/1
f 11/11/1 9/11/1 7/11/1
f 12/11/1 9/11/1 11/11/1
f 13/11/1 9/11/1 12/11/1
f 14/11/1 9/11/1 13/11/1
f 15/11/1 13/11/1 12/11/1
f 16/11/1 13/11/1 15/11/1
f 19/12/1 18/12/1 17/12/1
f 20/12/1 18/12/1 19/12/1
f 21/12/1 18/12/1 20/12/1
f 23/12/1 19/12/1 17/12/1
f 24/12/1 21/12/1 20/12/1
f 24/12/1 22/12/1 21/12/1
f 25/12/1 22/12/1 24/12/1
f 26/12/1 23/12/1 17/12/1
f 27/13/1 24/13/1 23/13/1
f 27/12/1 23/12/1 26/12/1
f 27/13/1 25/13/1 24/13/1
f 28/12/1 22/12/1 25/12/1
f 28/13/1 25/13/1 27/13/1
f 29/12/1 22/12/1 28/12/1
f 34/3/1 31/3/1 30/3/1
f 35/3/1 31/3/1 34/3/1
f 36/3/1 33/3/1 32/3/1
f 38/3/1 33/3/1 36/3/1
f 39/3/1 33/3/1 38/3/1
f 41/12/1 38/12/1 37/12/1
f 41/12/1 40/12/1 39/12/1
f 41/12/1 39/12/1 38/12/1
f 42/12/1 40/12/1 41/12/1
f 45/12/1 41/12/1 37/12/1
f 46/12/1 41/12/1 45/12/1
f 47/12/1 43/12/1 42/12/1
f 48/12/1 43/12/1 47/12/1
f 49/12/1 47/12/1 42/12/1
f 50/12/1 47/12/1 49/12/1
f 51/12/1 45/12/1 44/12/1
f 52/12/1 45/12/1 51/12/1
f 56/12/1 53/12/1 52/12/1
f 57/12/1 55/12/1 54/12/1
f 58/12/1 55/12/1 57/12/1
f 61/12/1 56/12/1 52/12/1
f 61/12/1 57/12/1 56/12/1
f 62/12/1 57/12/1 61/12/1
f 64/1/1 60/1/1 59/1/1
f 65/1/1 60/1/1 64/1/1
f 69/12/1 63/12/1 62/12/1
f 70/12/1 63/12/1 69/12/1
f 71/3/1 65/3/1 64/3/1
f 71/3/1 66/3/1 65/3/1
f 72/3/1 66/3/1 71/3/1
f 73/10/1 68/10/1 67/10/1
f 74/10/1 68/10/1 73/10/1
f 78/12/1 76/12/1 75/12/1
f 78/12/1 77/12/1 76/12/1
f 79/12/1 77/12/1 78/12/1
f 84/12/1 81/12/1 80/12/1
f 85/12/1 81/12/1 84/12/1
f 87/12/1 83/12/1 82/12/1
f 88/12/1 83/12/1 87/12/1
f 89/12/1 87/12/1 86/12/1
f 90/12/1 87/12/1 89/12/1
f 92/12/1 91/12/1 90/12/1
f 93/12/1 91/12/1 92/12/1
f 96/3/1 95/3/1 94/3/1
f 97/3/1 95/3/1 96/3/1
f 100/3/1 99/3/1 98/3/1
f 101/3/1 99/3/1 100/3/1
f 102/3/1 99/3/1 101/3/1
f 103/3/1 99/3/1 102/3/1
f 106/1/1 105/1/1 104/1/1
f 107/1/1 105/1/1 106/1/1
f 108/3/2 109/3/2 110/3/2
f 110/3/2 109/3/2 111/3/2
f 111/3/2 109/3/2 112/3/2
f 112/3/2 109/3/2 113/3/2
f 114/1/2 115/1/2 116/1/2
f 116/1/2 115/1/2 117/1/2
f 118/12/2 119/12/2 122/12/2
f 122/12/2 119/12/2 123/12/2
f 120/12/2 121/12/2 125/12/2
f 125/12/2 121/12/2 126/12/2
f 124/12/2 125/12/2 127/12/2
f 127/12/2 125/12/2 128/12/2
f 128/12/2 129/12/2 130/12/2
f 130/12/2 129/12/2 131/12/2
f 132/3/2 133/3/2 134/3/2
f 134/3/2 133/3/2 135/3/2
f 136/3/2 137/3/2 140/3/2
f 140/3/2 137/3/2 141/3/2
f 138/3/2 139/3/2 142/3/2
f 142/3/2 139/3/2 144/3/2
f 144/3/2 139/3/2 145/3/2
f 143/12/2 144/12/2 147/12/2
f 145/12/2 146/12/2 147/12/2
f 144/12/2 145/12/2 147/12/2
f 147/12/2 146/12/2 148/12/2
f 143/12/2 147/12/2 151/12/2
f 151/12/2 147/12/2 152/12/2
f 148/12/2 149/12/2 153/12/2
f 153/12/2 149/12/2 154/12/2
f 148/12/2 153/12/2 155/12/2
f 155/12/2 153/12/2 156/12/2
f 150/12/2 151/12/2 157/12/2
f 157/12/2 151/12/2 158/12/2
f 158/12/2 159/12/2 162/12/2
f 160/12/2 161/12/2 163/12/2
f 163/12/2 161/12/2 164/12/2
f 158/12/2 162/12/2 167/12/2
f 162/12/2 163/12/2 167/12/2
f 167/12/2 163/12/2 168/12/2
f 165/1/2 166/1/2 170/1/2
f 170/1/2 166/1/2 171/1/2
f 168/12/2 169/12/2 175/12/2
f 175/12/2 169/12/2 176/12/2
f 170/3/2 171/3/2 177/3/2
f 171/3/2 172/3/2 177/3/2
f 177/3/2 172/3/2 178/3/2
f 173/10/2 174/10/2 179/10/2
f 179/10/2 174/10/2 180/10/2
f 181/12/2 182/12/2 184/12/2
f 182/12/2 183/12/2 184/12/2
f 184/12/2 183/12/2 185/12/2
f 186/3/2 187/3/2 188/3/2
f 188/3/2 187/3/2 189/3/2
f 190/11/2 191/11/2 193/11/2
f 193/11/2 191/11/2 194/11/2
f 192/11/2 193/11/2 194/11/2
f 194/11/2 191/11/2 195/11/2
f 192/11/2 194/11/2 196/11/2
f 196/11/2 194/11/2 197/11/2
f 197/11/2 194/11/2 198/11/2
f 198/11/2 194/11/2 199/11/2
f 197/11/2 198/11/2 200/11/2
f 200/11/2 198/11/2 201/11/2
f 202/12/2 203/12/2 204/12/2
f 204/12/2 203/12/2 205/12/2
f 205/12/2 203/12/2 206/12/2
f 202/12/2 204/12/2 208/12/2
f 205/12/2 206/12/2 209/12/2
f 206/12/2 207/12/2 209/12/2
f 209/12/2 207/12/2 210/12/2
f 202/12/2 208/12/2 211/12/2
f 208/13/2 209/13/2 212/13/2
f 211/12/2 208/12/2 212/12/2
f 209/13/2 210/13/2 212/13/2
f 210/12/2 207/12/2 213/12/2
f 212/13/2 210/13/2 213/13/2
f 213/12/2 207/12/2 214/12/2
f 218/1/3 216/1/3 215/1/3
f 219/3/3 217/3/3 216/3/3
f 219/1/3 216/1/3 218/1/3
f 221/3/3 217/3/3 219/3/3
f 222/1/3 221/1/3 220/1/3
f 223/3/3 217/3/3 221/3/3
f 223/1/3 221/1/3 222/1/3
f 224/3/3 217/3/3 223/3/3
f 229/12/3 226/12/3 225/12/3
f 230/12/3 226/12/3 229/12/3
f 231/3/3 228/3/3 227/3/3
f 232/3/3 228/3/3 231/3/3
f 237/12/3 234/12/3 233/12/3
f 238/12/3 234/12/3 237/12/3
f 240/12/3 236/12/3 235/12/3
f 241/12/3 236/12/3 240/12/3
f 243/12/3 237/12/3 233/12/3
f 244/12/3 237/12/3 243/12/3
f 245/12/3 240/12/3 239/12/3
f 246/12/3 240/12/3 245/12/3
f 247/12/3 242/12/3 241/12/3
f 248/12/3 242/12/3 247/12/3
f 251/12/3 247/12/3 246/12/3
f 252/12/3 247/12/3 251/12/3
f 253/12/3 250/12/3 249/12/3
f 254/12/3 234/12/3 238/12/3
f 255/12/3 253/12/3 249/12/3
f 255/12/3 254/12/3 253/12/3
f 256/12/3 234/12/3 254/12/3
f 256/12/3 254/12/3 255/12/3
f 262/11/3 258/11/3 257/11/3
f 263/11/3 258/11/3 262/11/3
f 267/3/3 260/3/3 259/3/3
f 268/3/3 260/3/3 267/3/3
f 269/12/3 262/12/3 261/12/3
f 270/12/3 262/12/3 269/12/3
f 271/12/3 264/12/3 263/12/3
f 272/12/3 264/12/3 271/12/3
f 275/12/3 269/12/3 261/12/3
f 278/12/3 264/12/3 272/12/3
f 279/3/3 274/3/3 273/3/3
f 280/3/3 274/3/3 279/3/3
f 281/12/3 276/12/3 275/12/3
f 281/12/3 275/12/3 261/12/3
f 282/12/3 276/12/3 281/12/3
f 283/12/3 278/12/3 277/12/3
f 284/12/3 264/12/3 278/12/3
f 284/12/3 278/12/3 283/12/3
f 285/12/3 266/12/3 265/12/3
f 286/12/3 266/12/3 285/12/3
f 287/11/3 283/11/3 282/11/3
f 288/11/3 283/11/3 287/11/3
f 297/3/3 290/3/3 289/3/3
f 298/3/3 290/3/3 297/3/3
f 299/11/3 292/11/3 291/11/3
f 300/11/3 292/11/3 299/11/3
f 301/11/3 294/11/3 293/11/3
f 302/11/3 294/11/3 301/11/3
f 303/12/3 296/12/3 295/12/3
f 304/12/3 296/12/3 303/12/3
f 313/3/3 306/3/3 305/3/3
f 314/3/3 306/3/3 313/3/3
f 315/11/3 308/11/3 307/11/3
f 316/11/3 308/11/3 315/11/3
f 317/11/3 310/11/3 309/11/3
f 318/11/3 310/11/3 317/11/3
f 319/12/3 312/12/3 311/12/3
f 320/12/3 312/12/3 319/12/3
f 323/3/3 322/3/3 321/3/3
f 324/3/3 322/3/3 323/3/3
f 327/3/3 326/3/3 325/3/3
f 328/3/3 326/3/3 327/3/3
f 329/1/4 330/1/4 331/1/4
f 331/1/4 330/1/4 332/1/4
f 333/1/4 334/1/4 335/1/4
f 335/1/4 334/1/4 336/1/4
f 337/12/4 338/12/4 339/12/4
f 339/12/4 338/12/4 340/12/4
f 341/12/4 342/12/4 343/12/4
f 343/12/4 342/12/4 344/12/4
f 345/3/4 346/3/4 347/3/4
f 347/3/4 346/3/4 348/3/4
f 349/3/4 350/3/4 351/3/4
f 351/3/4 350/3/4 352/3/4
f 353/11/4 354/11/4 359/11/4
f 359/11/4 354/11/4 360/11/4
f 355/12/4 356/12/4 361/12/4
f 361/12/4 356/12/4 362/12/4
f 357/3/4 358/3/4 365/3/4
f 365/3/4 358/3/4 366/3/4
f 367/3/4 368/3/4 369/3/4
f 369/3/4 368/3/4 370/3/4
f 360/12/4 361/12/4 372/12/4
f 372/12/4 361/12/4 373/12/4
f 363/12/4 364/12/4 375/12/4
f 375/12/4 364/12/4 376/12/4
f 371/11/4 372/11/4 377/11/4
f 377/11/4 372/11/4 378/11/4
f 373/12/4 374/12/4 379/12/4
f 379/12/4 374/12/4 380/12/4
f 381/11/4 382/11/4 385/11/4
f 385/11/4 382/11/4 386/11/4
f 383/12/4 384/12/4 389/12/4
f 386/12/4 387/12/4 390/12/4
f 385/12/4 386/12/4 390/12/4
f 390/12/4 387/12/4 391/12/4
f 391/12/4 387/12/4 392/12/4
f 388/12/4 389/12/4 393/12/4
f 389/12/4 384/12/4 394/12/4
f 393/12/4 389/12/4 394/12/4
f 390/11/4 391/11/4 395/11/4
f 395/11/4 391/11/4 396/11/4
f 394/12/4 384/12/4 397/12/4
f 397/12/4 384/12/4 398/12/4
f 399/11/4 400/11/4 402/11/4
f 402/11/4 400/11/4 403/11/4
f 403/11/4 400/11/4 404/11/4
f 401/12/4 402/12/4 405/12/4
f 405/12/4 402/12/4 406/12/4
f 407/12/4 408/12/4 409/12/4
f 409/12/4 408/12/4 410/12/4
f 403/12/4 404/12/4 411/12/4
f 411/12/4 404/12/4 412/12/4
f 410/11/4 411/11/4 413/11/4
f 411/11/4 412/11/4 413/11/4
f 413/11/4 412/11/4 414/11/4
f 417/12/4 418/12/4 419/12/4
f 419/12/4 418/12/4 420/12/4
f 415/12/4 416/12/4 421/12/4
f 421/12/4 416/12/4 422/12/4
f 423/12/4 424/12/4 425/12/4
f 425/12/4 424/12/4 426/12/4
f 432/3/5 428/3/5 427/3/5
f 433/3/5 430/3/5 429/3/5
f 435/3/5 432/3/5 431/3/5
f 436/3/5 428/3/5 432/3/5
f 436/3/5 432/3/5 435/3/5
f 437/3/5 434/3/5 433/3/5
f 437/3/5 433/3/5 429/3/5
f 438/3/5 434/3/5 437/3/5
f 439/3/5 428/3/5 436/3/5
f 440/3/5 428/3/5 439/3/5
f 441/3/5 437/3/5 429/3/5
f 442/3/5 437/3/5 441/3/5
f 445/12/5 444/12/5 443/12/5
f 446/12/5 444/12/5 445/12/5
f 447/12/5 444/12/5 446/12/5
f 448/12/5 444/12/5 447/12/5
f 450/12/5 447/12/5 446/12/5
f 451/12/5 447/12/5 450/12/5
f 453/12/5 450/12/5 449/12/5
f 453/12/5 452/12/5 451/12/5
f 453/12/5 451/12/5 450/12/5
f 454/12/5 452/12/5 453/12/5
f 455/12/5 452/12/5 454/12/5
f 456/12/5 452/12/5 455/12/5
f 457/12/5 455/12/5 454/12/5
f 458/12/5 455/12/5 457/12/5
f 461/12/5 460/12/5 459/12/5
f 462/12/5 460/12/5 461/12/5
f 467/11/5 464/11/5 463/11/5
f 468/11/5 464/11/5 467/11/5
f 471/11/5 466/11/5 465/11/5
f 472/11/5 466/11/5 471/11/5
f 473/12/5 469/12/5 468/12/5
f 474/12/5 471/12/5 470/12/5
f 475/12/5 473/12/5 468/12/5
f 475/12/5 474/12/5 473/12/5
f 476/12/5 471/12/5 474/12/5
f 476/12/5 474/12/5 475/12/5
f 480/12/5 478/12/5 477/12/5
f 481/12/5 478/12/5 480/12/5
f 484/12/5 480/12/5 479/12/5
f 485/12/5 480/12/5 484/12/5
f 486/12/5 482/12/5 481/12/5
f 487/12/5 482/12/5 486/12/5
f 489/11/5 484/11/5 483/11/5
f 490/11/5 484/11/5 489/11/5
f 491/11/5 488/11/5 487/11/5
f 492/11/5 488/11/5 491/11/5
f 497/1/5 494/1/5 493/1/5
f 498/1/5 494/1/5 497/1/5
f 499/1/5 496/1/5 495/1/5
f 500/1/5 496/1/5 499/1/5
f 502/3/5 499/3/5 498/3/5
f 503/3/5 499/3/5 502/3/5
f 505/12/5 503/12/5 502/12/5
f 505/12/5 504/12/5 503/12/5
f 505/12/5 502/12/5 501/12/5
f 506/12/5 504/12/5 505/12/5
f 507/12/5 505/12/5 501/12/5
f 508/12/5 505/12/5 507/12/5
f 509/12/5 504/12/5 506/12/5
f 510/12/5 504/12/5 509/12/5
f 511/12/5 509/12/5 508/12/5
f 512/12/5 509/12/5 511/12/5
f 516/3/5 514/3/5 513/3/5
f 517/3/5 514/3/5 516/3/5
f 519/3/5 516/3/5 515/3/5
f 520/3/5 516/3/5 519/3/5
f 521/3/5 518/3/5 517/3/5
f 522/3/5 518/3/5 521/3/5
f 527/12/5 524/12/5 523/12/5
f 528/12/5 524/12/5 527/12/5
f 529/12/5 526/12/5 525/12/5
f 530/12/5 526/12/5 529/12/5
f 535/13/5 532/13/5 531/13/5
f 536/13/5 532/13/5 535/13/5
f 537/13/5 534/13/5 533/13/5
f 538/13/5 534/13/5 537/13/5
f 539/3/6 540/3/6 544/3/6
f 541/3/6 542/3/6 545/3/6
f 543/3/6 544/3/6 547/3/6
f 544/3/6 540/3/6 548/3/6
f 547/3/6 544/3/6 548/3/6
f 548/3/6 540/3/6 549/3/6
f 545/3/6 546/3/6 550/3/6
f 541/3/6 545/3/6 550/3/6
f 550/3/6 546/3/6 551/3/6
f 551/3/6 546/3/6 552/3/6
f 553/12/6 554/12/6 555/12/6
f 555/12/6 554/12/6 556/12/6
f 557/12/6 558/12/6 559/12/6
f 559/12/6 558/12/6 560/12/6
f 561/11/6 562/11/6 565/11/6
f 562/12/6 563/12/6 566/12/6
f 565/11/6 562/11/6 566/11/6
f 563/11/6 564/11/6 567/11/6
f 566/12/6 563/12/6 567/12/6
f 567/11/6 564/11/6 568/11/6
f 569/12/6 570/12/6 572/12/6
f 572/12/6 570/12/6 573/12/6
f 571/12/6 572/12/6 576/12/6
f 576/12/6 572/12/6 577/12/6
f 573/12/6 574/12/6 578/12/6
f 578/12/6 574/12/6 579/12/6
f 575/11/6 576/11/6 581/11/6
f 581/11/6 576/11/6 582/11/6
f 579/11/6 580/11/6 583/11/6
f 583/11/6 580/11/6 584/11/6
f 585/11/6 586/11/6 589/11/6
f 589/11/6 586/11/6 590/11/6
f 587/11/6 588/11/6 591/11/6
f 591/11/6 588/11/6 592/11/6
f 593/12/6 594/12/6 595/12/6
f 595/12/6 594/12/6 596/12/6
f 597/11/6 598/11/6 601/11/6
f 601/11/6 598/11/6 602/11/6
f 599/11/6 600/11/6 603/11/6
f 603/11/6 600/11/6 604/11/6
f 602/12/6 603/12/6 605/12/6
f 605/12/6 603/12/6 606/12/6
f 607/12/6 608/12/6 611/12/6
f 611/12/6 608/12/6 612/12/6
f 609/12/6 610/12/6 613/12/6
f 613/12/6 610/12/6 614/12/6
f 615/3/6 616/3/6 617/3/6
f 617/3/6 616/3/6 618/3/6
f 619/12/6 620/12/6 621/12/6
f 621/12/6 620/12/6 622/12/6
f 622/12/6 620/12/6 623/12/6
f 623/12/6 620/12/6 624/12/6
f 621/13/6 622/13/6 625/13/6
f 625/13/6 622/13/6 626/13/6
f 623/13/6 624/13/6 627/13/6
f 627/13/6 624/13/6 628/13/6
f 625/12/6 626/12/6 629/12/6
f 627/12/6 628/12/6 630/12/6
f 625/12/6 629/12/6 631/12/6
f 629/12/6 630/12/6 631/12/6
f 630/12/6 628/12/6 632/12/6
f 631/12/6 630/12/6 632/12/6
f 633/12/6 634/12/6 635/12/6
f 635/12/6 634/12/6 636/12/6
